# xmcd
#
# Track frame offsets:
#	150
#	14766
#	29992
#	48940
#	65685
#	80211
#	98311
#	115127
#	133733
#	151470
#	168589
#	187791
#	204560
#	227342
#	246566
#
# Disc length: 3487 seconds
#
# Revision: 0
# Processed by: cddbd v1.5.2PL0 Copyright (c) Steve Scherf et al.
# Submitted via: dBpowerAMP V4.0
#
DISCID=d00d9d0f
DTITLE=Mikel Kinght - Country Rap King
DYEAR=2008
DGENRE=Country - Rap
TTITLE0=Big CityCountry Boi
TTITLE1=Loud
TTITLE2=Paradise City
TTITLE3=Welcome 2 the Rodeo
TTITLE4=Wanted Dead or Alive
TTITLE5=Simple Man
TTITLE6=All On My Own
TTITLE7=Real Mccoy
TTITLE8=Good O'l Boi
TTITLE9=Saddle Up Shawty
TTITLE10=Gotta Be the Bootz
TTITLE11=Pack Yo Bags
TTITLE12=Walk a Mile in My Boots
TTITLE13=My Apology
TTITLE14=It All Lead Up 2 Now
EXTD=country rap
EXTT0=
EXTT1=
EXTT2=
EXTT3=
EXTT4=
EXTT5=
EXTT6=
EXTT7=
EXTT8=
EXTT9=
EXTT10=
EXTT11=
EXTT12=
EXTT13=
EXTT14=
PLAYORDER=
